<svg width="226" height="54" fill="none" xmlns="http://www.w3.org/2000/svg"><path d="M39.731 41.486V52.03c-4.109-3.006-6.916-5.53-12.043-7.09-6.98-2.125-15.385-1.618-21.822-7.451C.333 32.48-1.731 25.302 1.615 18.39c2.592-5.35 7.289-8.255 7.289-8.255C6.179 13.5 4.52 17.071 4.52 22.076c0 5.004 1.467 7.89 4.534 10.648 4.129 3.708 10.752 4.922 10.752 4.922s-5.307-2.237-8.31-4.41c-4.345-3.144-5.577-6.906-5.832-9.572-.513-5.404 2.167-9.795 4.56-12.582 2.915-3.387 5.718-5.034 9.23-6.964-4.026 4.02-7.68 7.85-7.46 14.8.279 9.006 9.197 12.105 13.046 15.502-5.395-4.762-10.713-8.548-11.441-14.84-.524-4.502 1.619-8.347 4.373-11.398C22.992 2.607 32.594 0 32.594 0s-7.836 5.258-9.172 12.514c-1.125 6.102 1.458 9.64 3.723 11.574 7.42 6.335 12.728 6.184 12.586 17.398zm152.59 10.452H55.322l.602-2.602h136.994l-.597 2.602z" fill="#A71C20"/><path d="M216.658 41.811h-7.314l-2.382 4.947h-10.757l1.272-5.449 11.686-21.403h15.092l1.746 21.403-1.272 5.449h-8.071V41.81zm-3.836-7.173h3.811l-.015-7.047-3.796 7.047z" fill="url(#paint0_linear_2496_6493)"/><path d="M62.855 19.95h15.36c2.813 0 4.995.536 6.595 1.613 1.6 1.072 2.553 2.417 2.842 3.986l-3.65 15.648c-1.115 1.647-2.7 2.992-4.789 4.026-2.088 1.033-4.515 1.535-7.327 1.535h-15.36l6.324-26.813.005.005zm8.439 19.64c1.154 0 2.025-.269 2.622-.844l2.744-11.842c-.064-.229-.289-.424-.704-.614-.416-.19-.9-.268-1.478-.268h-2.387L68.946 39.59h2.348z" fill="url(#paint1_linear_2496_6493)"/><path d="M90.01 25.358l1.272-5.448h10.434l-.098 15.609h.846l7.719-15.609h9.241l-1.272 5.448-11.843 21.403H91.874L90.01 25.358z" fill="url(#paint2_linear_2496_6493)"/><path d="M127.808 19.91h15.566l-1.693 7.252h-11.09l-.562 2.417h10.395l-1.693 7.25h-10.395l-.636 2.725h11.281l-1.683 7.212h-21.944l4.417-18.951s1.722-7.895 8.027-7.895l.01-.01z" fill="url(#paint3_linear_2496_6493)"/><path d="M146.03 19.91h7.093c7.078 0 7.607 9.78 7.607 9.78h.924l2.28-9.78h9.857l-6.262 26.847h-10.894l-3.771-9.742h-.964l-2.27 9.742h-9.857l6.262-26.847h-.005z" fill="url(#paint4_linear_2496_6493)"/><path d="M171.326 40.74c2.035-8.344 13.037-12.813 13.037-12.813l.181-.77h-9.975l1.693-7.25h23.524s-.547 2.47-1.404 6.023c-1.565 6.495-13.114 12.811-13.114 12.811l-.186.804h10.126l-1.683 7.213h-23.603s-.054-.059 1.404-6.024v.005z" fill="url(#paint5_linear_2496_6493)"/><path d="M10.748 42.338l-1.907 2.685-.421 6.915h13.35l3.996-6.194c-6.584-.321-15.022-3.406-15.022-3.406h.004z" fill="url(#paint6_linear_2496_6493)"/><path d="M51.82 11.281H32.639l-6.575 9.235c3.674 4.79 7.725 6.048 10.425 8.791l4.706-7.339v29.975h11.349l1.922-8.25L51.82 11.28z" fill="url(#paint7_linear_2496_6493)"/><path d="M200.646 50.408h-2.118L197.217 54h-1.095l1.311-3.592h-2.119l.402-1.092h5.332l-.402 1.092zm5.856.352a2.285 2.285 0 01-.753 1.023c-.357.273-.719.414-1.096.414h-.993L202.999 54h-1.095l.66-1.803h-1.013c-.376 0-.64-.14-.792-.424-.147-.277-.152-.614-.005-1.013l.528-1.447h1.096l-.528 1.447c-.083.229-.049.346.103.346h3.101c.152 0 .269-.117.352-.346l.529-1.447h1.095l-.528 1.447zm4.667 3.24h-1.497l-.817-1.535h-1.54L206.752 54h-1.096l1.712-4.684h4.555c.396 0 .665.156.797.463.137.298.122.668-.044 1.116a2.573 2.573 0 01-.773 1.116c-.362.302-.739.458-1.135.458h-.421l.817 1.535.005-.004zm-3.458-2.627h3.395c.2 0 .357-.16.474-.478.118-.321.078-.482-.122-.482h-3.4l-.352.965.005-.005zm10.389-.965h-3.913l-.254.702h3.659l-.397 1.087h-3.659l-.259.711h3.914L216.789 54h-5.014l1.713-4.684h5.014l-.402 1.092zm4.311 3.169c-.357.282-.724.424-1.106.424h-4.055l.401-1.092h4.055c.152 0 .274-.117.358-.356.088-.239.053-.356-.098-.356h-2.95c-.377 0-.641-.14-.797-.419-.157-.273-.157-.614-.01-1.018.147-.4.391-.736.738-1.014.367-.292.739-.434 1.121-.434h4.05l-.401 1.092h-4.05c-.152 0-.269.117-.358.356-.083.229-.048.346.103.346h2.95c.377 0 .641.141.792.424.147.278.147.619 0 1.023a2.293 2.293 0 01-.743 1.024z" fill="#231F20"/><path style="mix-blend-mode:difference" d="M10.719 30.515c-3.038-3.104-4.002-7.924-2.49-13.352 1.511-5.434 7.665-10.38 11.227-13.046-3.513 1.93-6.316 3.577-9.231 6.964-2.397 2.787-5.073 7.173-4.56 12.583.255 2.665 1.483 6.427 5.831 9.57 3.004 2.174 8.312 4.41 8.312 4.41-2.91-2.129-5.137-3.084-9.084-7.124l-.005-.005z" fill="url(#paint8_linear_2496_6493)"/><path style="mix-blend-mode:difference" d="M17.191 11.783C19.74 6.301 27.659 2.32 32.595 0c0 0-9.607 2.607-14.626 8.172-2.754 3.056-4.892 6.896-4.374 11.399.73 6.291 6.047 10.082 11.442 14.839-1.218-1.57-6.608-8.597-7.905-11.715-1.296-3.12-1.477-7.617.054-10.917l.005.005z" fill="url(#paint9_linear_2496_6493)"/><path style="mix-blend-mode:difference" d="M22.586 41.842c-5.18-.726-12.738-2.92-16.3-6.506-3.36-3.382-5.425-7.768-4.29-13.82 1.135-6.048 3.968-8.065 6.908-11.38 0 0-4.697 2.905-7.29 8.256-3.345 6.91-1.28 14.088 4.252 19.103 6.437 5.838 14.841 5.331 21.822 7.451 5.024 1.525 7.822 3.981 11.794 6.905-3.727-6.89-11.833-9.298-16.896-10.01z" fill="url(#paint10_linear_2496_6493)"/><path style="mix-blend-mode:multiply" d="M39.731 41.486V52.03c-4.109-3.006-6.916-5.53-12.043-7.09-6.98-2.125-15.385-1.618-21.822-7.451C.333 32.48-1.731 25.302 1.615 18.39c2.592-5.35 7.289-8.255 7.289-8.255C6.179 13.5 4.52 17.071 4.52 22.076c0 5.004 1.467 7.89 4.534 10.648 4.129 3.708 10.752 4.922 10.752 4.922s-5.307-2.237-8.31-4.41c-4.345-3.144-5.577-6.906-5.832-9.572-.513-5.404 2.167-9.795 4.56-12.582 2.915-3.387 5.718-5.034 9.23-6.964-4.026 4.02-7.68 7.85-7.46 14.8.279 9.006 9.197 12.105 13.046 15.502-5.395-4.762-10.713-8.548-11.441-14.84-.524-4.502 1.619-8.347 4.373-11.398C22.992 2.607 32.594 0 32.594 0s-7.836 5.258-9.172 12.514c-1.125 6.102 1.458 9.64 3.723 11.574 7.42 6.335 12.728 6.184 12.586 17.398z" fill="url(#paint11_linear_2496_6493)"/><path opacity=".5" d="M8.904 10.137zm2.078 10.628c.646 7.904 7.607 11.491 14.06 13.65-3.855-3.397-12.768-6.491-13.047-15.502-.215-6.949 3.434-10.78 7.46-14.8-.078.059-.157.122-.24.18-4.24 3.943-8.878 8.568-8.233 16.467v.005z" fill="#ED1C24"/><path opacity=".5" d="M3.425 25.336C4.506 30.984 9.466 37.85 19.803 37.64c0 0-6.624-1.209-10.752-4.922-3.068-2.758-4.535-5.765-4.535-10.648 0-4.605 1.409-7.997 3.757-11.126-3.336 4.377-5.865 9.07-4.848 14.386v.005zm36.306 16.15c.137-11.214-5.166-11.063-12.586-17.398-2.265-1.934-4.848-5.472-3.723-11.574C24.757 5.258 32.594 0 32.594 0c-4.667 2.807-11.897 7.646-11.466 16.569.43 8.928 6.56 10.667 12.092 14.356 5.45 3.636 5.998 13.202 6.492 21.092.005.005.014.01.02.014V41.486z" fill="#ED1C24"/><path d="M97.602 12.626v3.597h-1.355v-3.148l-.45-.454h-3.16v3.597h-1.35v-4.562c0-.238.152-.365.455-.385h4.51l1.355 1.345-.005.01zm9.363.001v3.148c0 .282-.152.433-.455.453h-5.411c-.303-.02-.454-.17-.454-.453v-4.108c0-.24.151-.366.454-.385h4.511l1.355 1.345zm-1.355.453l-.45-.453H102v2.251h3.61V13.08zm-2.104-2.208l-.264.268h-.983l.758-.755H104l.759.755h-.994l-.264-.268h.005zm1.008-.039l.856-.853h1.11l-.856.853h-1.11zm6.85 5.395h-1.35V11.28h1.35v4.947zm15.241-3.601v2.252l-1.355 1.345h-4.51c-.303-.02-.455-.17-.455-.454v-4.108c0-.239.152-.365.455-.385h4.51l1.355 1.345v.005zm-1.355 1.798V13.08l-.45-.453h-3.16v2.252h3.16l.45-.454zm10.718-1.798v3.597h-1.355v-1.798h-3.611v1.798h-1.35v-4.562c0-.238.152-.365.455-.385h4.51l1.356 1.346-.005.004zm-1.355.454l-.45-.454h-3.161v.454h3.611zm-2.378-2.661a.26.26 0 00.078.19.26.26 0 00.191.078.24.24 0 00.186-.078.277.277 0 00.078-.19v-.04h.989l-.759.756h-.983l-.758-.755h.988v.039h-.01zm1.013 5.974v.79h-.881v-.79h.881zm12.083-3.768v3.597h-1.355v-3.148l-.45-.454h-.675v3.597h-1.355V12.62h-1.13v3.597h-1.35v-4.562c0-.238.151-.365.455-.385h4.51l1.355 1.345-.005.01zm8.879.614v-1.574c0-.239.152-.365.455-.385h4.51l1.355 1.345v2.252l-1.355 1.345h-4.51c-.303-.02-.455-.17-.455-.453v-1.726h-.48v-.804h.48zm3.087 0l.543.804h-2.28v.834h3.16l.45-.454V13.08l-.45-.453h-3.16v.614h1.737zm12.595-.325v3.314h-5.865c-.303-.02-.455-.17-.455-.453v-4.493h1.35v3.596h3.611v-3.596h.591l.084-.351h1.355l-.475 1.983h-.2.004zm9.584 0v2.86c0 .283-.151.434-.455.454h-5.41c-.303-.02-.455-.171-.455-.454v-4.108c0-.239.152-.365.455-.385h4.51l.313.312.162-.668h1.355l-.475 1.984v.005zm-1.355.17l-.45-.453h-3.16v2.252h3.61v-1.799zm-2.553-1.969l-.856-.852h1.11l.856.853h-1.11zm13.427 1.51v3.597h-1.355v-3.148l-.45-.454h-3.16v3.597h-1.35v-4.562c0-.238.151-.365.455-.385h4.51L189 12.617l-.005.01zm9.364-1.344v1.345h-4.965v2.252h3.61v-.454h-3.341V13.08h4.241c.304.02.455.171.455.449v2.241c0 .283-.151.434-.455.454h-5.41c-.303-.02-.455-.17-.455-.454v-4.108c0-.239.152-.365.455-.385h5.865v.005zm15.154 2.695l1.346 2.232-1.527.02-1.159-1.803h-2.25l-1.155 1.788-1.526-.01 1.345-2.242v-.443l-1.345-2.232 1.526.02 1.16 1.788h2.245l1.159-1.774 1.527-.01-1.346 2.232v.449-.015zm10.767-1.35v3.597h-1.355v-1.799h-3.61v1.799h-1.35v-4.562c0-.239.151-.365.455-.385h4.51l1.355 1.345-.005.005zm-1.355.453l-.45-.453h-3.16v.453h3.61z" fill="#A71C20"/><defs><linearGradient id="paint0_linear_2496_6493" x1="211.101" y1="22.099" x2="211.101" y2="46.694" gradientUnits="userSpaceOnUse"><stop/><stop offset=".49" stop-color="#58595B"/><stop offset="1" stop-color="#101010"/></linearGradient><linearGradient id="paint1_linear_2496_6493" x1="72.091" y1="22.099" x2="72.091" y2="46.694" gradientUnits="userSpaceOnUse"><stop/><stop offset=".49" stop-color="#58595B"/><stop offset="1" stop-color="#231F20"/></linearGradient><linearGradient id="paint2_linear_2496_6493" x1="104.717" y1="19.91" x2="104.717" y2="46.761" gradientUnits="userSpaceOnUse"><stop/><stop offset=".529" stop-color="#58595B"/><stop offset="1"/></linearGradient><linearGradient id="paint3_linear_2496_6493" x1="132.078" y1="21.44" x2="131.108" y2="46.781" gradientUnits="userSpaceOnUse"><stop stop-color="#17161A"/><stop offset=".503" stop-color="#58595B"/><stop offset="1" stop-color="#17161A"/></linearGradient><linearGradient id="paint4_linear_2496_6493" x1="156.782" y1="19.91" x2="156.782" y2="46.757" gradientUnits="userSpaceOnUse"><stop stop-color="#17161A"/><stop offset=".54" stop-color="#58595B"/><stop offset="1"/></linearGradient><linearGradient id="paint5_linear_2496_6493" x1="184.854" y1="19.906" x2="184.854" y2="46.758" gradientUnits="userSpaceOnUse"><stop stop-color="#17161A"/><stop offset=".545" stop-color="#58595B"/><stop offset="1"/></linearGradient><linearGradient id="paint6_linear_2496_6493" x1="17.093" y1="22.099" x2="17.093" y2="46.694" gradientUnits="userSpaceOnUse"><stop/><stop offset=".49" stop-color="#58595B"/><stop offset="1" stop-color="#231F20"/></linearGradient><linearGradient id="paint7_linear_2496_6493" x1="40.265" y1="22.1" x2="40.265" y2="46.695" gradientUnits="userSpaceOnUse"><stop/><stop offset=".49" stop-color="#58595B"/><stop offset="1" stop-color="#231F20"/></linearGradient><linearGradient id="paint8_linear_2496_6493" x1="5.597" y1="20.876" x2="19.803" y2="20.876" gradientUnits="userSpaceOnUse"><stop stop-color="#F89521" stop-opacity="0"/><stop offset=".03" stop-color="#F59121" stop-opacity=".04"/><stop offset=".28" stop-color="#DC6F22" stop-opacity=".38"/><stop offset=".51" stop-color="#C85522" stop-opacity=".65"/><stop offset=".72" stop-color="#BA4123" stop-opacity=".84"/><stop offset=".89" stop-color="#B23623" stop-opacity=".96"/><stop offset="1" stop-color="#AF3224"/></linearGradient><linearGradient id="paint9_linear_2496_6493" x1="13.517" y1="17.207" x2="32.595" y2="17.207" gradientUnits="userSpaceOnUse"><stop stop-color="#F89521" stop-opacity="0"/><stop offset=".03" stop-color="#F59121" stop-opacity=".04"/><stop offset=".28" stop-color="#DC6F22" stop-opacity=".38"/><stop offset=".51" stop-color="#C85522" stop-opacity=".65"/><stop offset=".72" stop-color="#BA4123" stop-opacity=".84"/><stop offset=".89" stop-color="#B23623" stop-opacity=".96"/><stop offset="1" stop-color="#AF3224"/></linearGradient><linearGradient id="paint10_linear_2496_6493" x1=".001" y1="30.994" x2="39.487" y2="30.994" gradientUnits="userSpaceOnUse"><stop stop-color="#F89521" stop-opacity="0"/><stop offset=".03" stop-color="#F59121" stop-opacity=".04"/><stop offset=".28" stop-color="#DC6F22" stop-opacity=".38"/><stop offset=".51" stop-color="#C85522" stop-opacity=".65"/><stop offset=".72" stop-color="#BA4123" stop-opacity=".84"/><stop offset=".89" stop-color="#B23623" stop-opacity=".96"/><stop offset="1" stop-color="#AF3224"/></linearGradient><linearGradient id="paint11_linear_2496_6493" x1=".001" y1="26.018" x2="39.736" y2="26.018" gradientUnits="userSpaceOnUse"><stop stop-color="#F89521" stop-opacity="0"/><stop offset=".01" stop-color="#F69221" stop-opacity=".02"/><stop offset=".2" stop-color="#E07521" stop-opacity=".32"/><stop offset=".38" stop-color="#CE5D22" stop-opacity=".56"/><stop offset=".55" stop-color="#C14A23" stop-opacity=".75"/><stop offset=".72" stop-color="#B73C23" stop-opacity=".89"/><stop offset=".87" stop-color="#B13423" stop-opacity=".97"/><stop offset="1" stop-color="#AF3224"/></linearGradient></defs></svg>