<svg width="129" height="31" fill="none" xmlns="http://www.w3.org/2000/svg"><g clip-path="url(#clip0_1739_88456)" fill="#fff"><path d="M22.679 23.82v6.053c-2.346-1.726-3.949-3.175-6.875-4.07-3.984-1.217-8.781-.926-12.456-4.278C.19 18.646-.988 14.531.922 10.56a12.52 12.52 0 014.16-4.74C3.524 7.75 2.57 9.8 2.57 12.675c0 2.797.838 4.529 2.588 6.112 2.357 2.13 6.143 2.823 6.143 2.823s-3.03-1.281-4.746-2.518c-2.48-1.807-3.18-3.964-3.326-5.497-.293-3.102 1.234-5.623 2.602-7.22 1.675-1.961 3.263-2.895 5.269-4-2.3 2.309-4.385 4.508-4.263 8.497.162 5.17 5.25 6.946 7.45 8.896-3.071-2.73-6.115-4.907-6.531-8.518-.299-2.585.924-4.793 2.494-6.544C13.123 1.497 18.605.012 18.605.012s-4.468 3.018-5.236 7.187c-.642 3.502.838 5.533 2.125 6.644 4.236 3.626 7.266 3.539 7.185 9.976zm87.096 5.996H31.576l.344-1.494h78.195l-.34 1.494zm13.892-5.81h-4.16l-1.36 2.84h-6.143l.723-3.128 6.671-12.284h8.616L129 23.718l-.726 3.128h-4.604l-.003-2.84zm-2.186-4.118h2.175V15.84l-2.175 4.048zm-85.603-8.435h8.767c1.606 0 2.854.308 3.764.926.91.618 1.46 1.399 1.622 2.289l-2.08 8.985a6.929 6.929 0 01-2.733 2.311 9.264 9.264 0 01-4.189.881h-8.767l3.616-15.392zm4.816 11.274a2.061 2.061 0 001.497-.484l1.566-6.798c-.036-.131-.164-.243-.402-.352a1.992 1.992 0 00-.837-.154h-1.363l-1.798 7.788h1.337zm10.683-8.168l.723-3.125h5.956L58 20.386h.483l4.406-8.952h5.275l-.72 3.125-6.76 12.287H52.44l-1.064-12.287zm21.574-3.125h8.885l-.963 4.16H74.55l-.321 1.398h5.933l-.966 4.16h-5.942l-.363 1.564h6.44l-.958 4.14H65.848l2.513-10.88s.99-4.542 4.59-4.542zm10.402 0h4.043c4.037 0 4.339 5.614 4.339 5.614h.527l1.302-5.614h5.626l-3.571 15.412h-6.213l-2.153-5.596h-.558l-1.296 5.596h-5.618l3.572-15.412zm14.439 11.954c1.161-4.787 7.441-7.352 7.441-7.352l.1-.442h-5.69l.963-4.16h13.428s-.313 1.418-.801 3.455c-.894 3.729-7.486 7.354-7.486 7.354l-.106.462h5.768l-.957 4.14H96.99s-.03-.033.802-3.457z"/><path d="M6.144 24.309l-1.09 1.541-.24 3.97h7.623l2.281-3.556c-3.766-.184-8.574-1.955-8.574-1.955zM29.577 6.477H18.63l-3.75 5.301c2.094 2.75 4.406 3.472 5.947 5.036l2.686-4.213v17.207h6.478l1.098-4.736-1.51-18.595zm84.951 22.46h-1.209L112.571 31h-.626l.748-2.062h-1.209l.229-.627h3.047l-.232.627zm3.343.205a1.285 1.285 0 01-.428.585 1.006 1.006 0 01-.625.238h-.559L115.885 31h-.628l.377-1.035h-.595a.466.466 0 01-.452-.244.69.69 0 010-.579l.301-.84h.626l-.302.84c-.047.131-.028.199.059.199h1.77c.087 0 .154-.068.201-.199l.302-.84h.625l-.298.84zM120.534 31h-.855l-.452-.882h-.894l-.321.881h-.625l.977-2.688h2.6a.446.446 0 01.455.263.846.846 0 01-.025.64c-.087.25-.238.47-.439.641a1.002 1.002 0 01-.648.263h-.243l.47.881zm-1.975-1.511h1.938c.115 0 .204-.09.279-.28.076-.19.045-.28-.067-.28h-1.94l-.21.56zm5.932-.552h-2.234l-.148.403h2.089l-.226.624h-2.089l-.148.408h2.234l-.226.627h-2.862l.977-2.688h2.862l-.229.626zm2.459 1.819a1.006 1.006 0 01-.631.243h-2.315l.229-.627h2.315c.086 0 .153-.067.203-.204.051-.137.031-.204-.055-.204h-1.676a.474.474 0 01-.455-.24.68.68 0 010-.583c.084-.23.23-.43.422-.581a1.01 1.01 0 01.642-.25h2.312l-.226.627H125.4c-.087 0-.154.067-.204.204-.05.138-.028.2.059.2h1.675a.477.477 0 01.455.24.708.708 0 010 .587 1.32 1.32 0 01-.435.588z"/></g><defs><clipPath id="clip0_1739_88456"><path fill="#fff" d="M0 0h129v31H0z"/></clipPath></defs></svg>