<svg width="24" height="24" fill="none" xmlns="http://www.w3.org/2000/svg"><path opacity=".3" fill-rule="evenodd" clip-rule="evenodd" d="M3 6a1 1 0 000 2h2a1 1 0 000-2H3zm-3 6a1 1 0 011-1h4a1 1 0 110 2H1a1 1 0 01-1-1zm3 5a1 1 0 011-1h1a1 1 0 110 2H4a1 1 0 01-1-1z" fill="#000"/><path fill-rule="evenodd" clip-rule="evenodd" d="M10 6a2 2 0 00-2 2v8a2 2 0 002 2h12a2 2 0 002-2V8a2 2 0 00-2-2H10zm11.926 2.316a.632.632 0 00-.841-.244L16 10.719l-5.085-2.647a.632.632 0 00-.84.244.59.59 0 00.252.812l5.379 2.8a.64.64 0 00.588 0l5.38-2.8a.59.59 0 00.252-.812z" fill="#A61C20"/></svg>