<svg width="33" height="33" fill="none" xmlns="http://www.w3.org/2000/svg"><path d="M32.541 16.5a1.458 1.458 0 01-1.458 1.458h-5.23l3.344 3.344a1.459 1.459 0 01-2.062 2.062l-5.406-5.406h-3.771v3.771l5.406 5.406a1.459 1.459 0 01-2.062 2.062l-3.344-3.344v5.23a1.458 1.458 0 11-2.917 0v-5.23l-3.344 3.344a1.458 1.458 0 11-2.062-2.062l5.406-5.406v-3.771h-3.77l-5.407 5.406a1.459 1.459 0 01-2.062-2.062l3.344-3.344h-5.23a1.458 1.458 0 110-2.917h5.23l-3.344-3.344a1.458 1.458 0 112.062-2.062l5.406 5.406h3.771v-3.77L9.635 5.863a1.458 1.458 0 112.062-2.062l3.344 3.344v-5.23a1.458 1.458 0 012.917 0v5.23l3.344-3.344a1.458 1.458 0 112.062 2.062l-5.406 5.406v3.771h3.771l5.406-5.406a1.457 1.457 0 112.062 2.062l-3.344 3.344h5.23a1.458 1.458 0 011.458 1.459z" fill="#000"/></svg>