<svg width="33" height="33" fill="none" xmlns="http://www.w3.org/2000/svg"><path d="M26.708 20.875a5.755 5.755 0 00-2.944.826l-2.258-2.257a5.71 5.71 0 00-.706-6.854l1.36-3.401c.06 0 .115.017.173.017a4.419 4.419 0 10-2.879-1.104l-1.15 2.878a5.527 5.527 0 00-4.749.512L8.781 6.719l-.01-.01a4.312 4.312 0 00-.3-4.307 4.375 4.375 0 10-3.638 6.806A4.317 4.317 0 006.71 8.77l.009.014 4.774 4.771a5.7 5.7 0 00.646 6.78l-4.141 5.06a3.689 3.689 0 102.258 1.85l4.309-5.268a5.57 5.57 0 004.88-.471l2.257 2.258a5.756 5.756 0 00-.827 2.944 5.833 5.833 0 105.833-5.833zM4.833 6.29a1.458 1.458 0 110-2.917 1.458 1.458 0 010 2.917zm8.75 10.209a2.917 2.917 0 115.834 0 2.917 2.917 0 01-5.834 0zm13.125 13.125a2.916 2.916 0 110-5.833 2.916 2.916 0 010 5.833zm1.458-16.042a2.917 2.917 0 110 5.834 2.917 2.917 0 010-5.834zM4.833 17.958a2.917 2.917 0 110-5.833 2.917 2.917 0 010 5.833zm27.708-8.75a1.459 1.459 0 11-2.917 0 1.459 1.459 0 012.917 0zM1.916 20.875a1.459 1.459 0 110 2.917 1.459 1.459 0 010-2.917z" fill="#000"/></svg>