<svg width="20" height="20" fill="none" xmlns="http://www.w3.org/2000/svg"><path d="M18.333 5.833h-7.5V1.667A.833.833 0 0010 .833H1.667a.833.833 0 00-.834.834v16.666a.833.833 0 00.834.834h16.666a.834.834 0 00.834-.834V6.667a.833.833 0 00-.834-.834zm-9.166 5H2.5V9.167h6.667v1.666zm0-4.166V7.5H2.5V5.833h6.667v.834zM2.5 12.5h6.667v1.667H2.5V12.5zm6.667-10v1.667H2.5V2.5h6.667zM2.5 15.833h6.667V17.5H2.5v-1.667zm15 1.667h-6.667v-10H17.5v10zm-4.167-4.167h-1.666v-1.666h1.666v1.666zm0 3.334h-1.666V15h1.666v1.667zm3.334-3.334H15v-1.666h1.667v1.666zM13.333 10h-1.666V8.333h1.666V10zm3.334 0H15V8.333h1.667V10zm0 6.667H15V15h1.667v1.667z" fill="#000"/></svg>