<svg width="20" height="20" fill="none" xmlns="http://www.w3.org/2000/svg"><path d="M10 .833A9.167 9.167 0 1019.167 10 9.177 9.177 0 0010 .833zm-7.45 10h2.473a13.18 13.18 0 001.505 5.809 7.51 7.51 0 01-3.979-5.809zm2.473-1.666H2.549a7.512 7.512 0 013.979-5.809 13.18 13.18 0 00-1.505 5.809zm4.144 8.055c-1.203-.78-2.313-3.162-2.479-6.389h2.479v6.389zm0-8.055H6.688c.166-3.227 1.276-5.609 2.479-6.389v6.389zm1.666 8.055v-6.389h2.479c-.166 3.227-1.276 5.609-2.479 6.389zm0-8.055V2.778c1.203.78 2.313 3.162 2.479 6.389h-2.479zm2.64 7.475a13.179 13.179 0 001.504-5.809h2.474a7.512 7.512 0 01-3.979 5.809zm1.504-7.475a13.18 13.18 0 00-1.505-5.809 7.511 7.511 0 013.979 5.809h-2.474z" fill="#17161A"/></svg>