<svg width="190" height="45" fill="none" xmlns="http://www.w3.org/2000/svg"><path d="M33.403 34.571v8.788c-3.455-2.505-5.816-4.609-10.125-5.908-5.87-1.771-12.934-1.349-18.347-6.21-4.65-4.174-6.386-10.156-3.573-15.915 2.18-4.459 6.127-6.88 6.127-6.88-2.29 2.803-3.685 5.78-3.685 9.95 0 4.171 1.234 6.575 3.813 8.874 3.47 3.09 9.04 4.101 9.04 4.101s-4.463-1.864-6.988-3.675c-3.652-2.62-4.688-5.754-4.902-7.976-.432-4.503 1.822-8.162 3.833-10.485 2.45-2.823 4.807-4.195 7.76-5.803-3.385 3.35-6.457 6.542-6.272 12.333.235 7.505 7.732 10.087 10.969 12.918-4.537-3.968-9.007-7.123-9.62-12.366-.44-3.752 1.362-6.956 3.677-9.499C19.33 2.173 27.402 0 27.402 0s-6.588 4.382-7.71 10.429c-.947 5.084 1.225 8.032 3.129 9.645 6.239 5.279 10.7 5.153 10.582 14.497zm128.283 8.711H46.51l.506-2.169h115.172l-.502 2.169z" fill="#A71C20"/><path d="M182.146 34.843h-6.149l-2.002 4.122h-9.044l1.069-4.54 9.825-17.836h12.688l1.468 17.836-1.07 4.54h-6.785v-4.122zm-3.224-5.978h3.203l-.012-5.872-3.191 5.872z" fill="url(#paint0_linear_2005_12514)"/><path d="M52.843 16.625h12.913c2.365 0 4.2.447 5.544 1.344 1.345.894 2.147 2.015 2.39 3.322l-3.068 13.04c-.938 1.373-2.27 2.494-4.026 3.354-1.757.861-3.796 1.28-6.161 1.28H47.522l5.317-22.344.004.004zm7.094 16.366c.97 0 1.703-.223 2.205-.703l2.307-9.868c-.054-.19-.243-.353-.592-.512-.35-.158-.757-.223-1.242-.223h-2.007l-2.645 11.306h1.974z" fill="url(#paint1_linear_2005_12514)"/><path d="M75.672 21.133l1.07-4.54h8.771L85.431 29.6h.711l6.49-13.007h7.769l-1.07 4.54-9.956 17.836H77.239l-1.567-17.836z" fill="url(#paint2_linear_2005_12514)"/><path d="M107.449 16.593h13.086l-1.423 6.043h-9.323l-.473 2.014h8.739l-1.423 6.043h-8.739l-.534 2.27h9.483l-1.415 6.01H96.978l3.714-15.793s1.448-6.58 6.749-6.58l.008-.007z" fill="url(#paint3_linear_2005_12514)"/><path d="M122.77 16.593h5.963c5.951 0 6.395 8.15 6.395 8.15h.777l1.917-8.15h8.286l-5.264 22.372h-9.158l-3.171-8.118h-.81l-1.908 8.118h-8.287l5.264-22.372h-.004z" fill="url(#paint4_linear_2005_12514)"/><path d="M144.034 33.95c1.711-6.953 10.96-10.677 10.96-10.677l.152-.641h-8.385l1.423-6.043h19.777s-.461 2.059-1.18 5.02c-1.316 5.413-11.026 10.676-11.026 10.676l-.156.67h8.513l-1.415 6.01h-19.843s-.045-.049 1.18-5.02v.005z" fill="url(#paint5_linear_2005_12514)"/><path d="M9.036 35.282L7.432 37.52l-.354 5.762h11.223l3.36-5.161c-5.535-.268-12.63-2.839-12.63-2.839h.005z" fill="url(#paint6_linear_2005_12514)"/><path d="M43.565 9.401H27.439l-5.527 7.696c3.089 3.992 6.494 5.04 8.764 7.326l3.956-6.116v24.98h9.541l1.617-6.876-2.225-27.01z" fill="url(#paint7_linear_2005_12514)"/><path d="M168.686 42.007h-1.781L165.803 45h-.921l1.102-2.993h-1.781l.337-.91h4.483l-.337.91zm4.922.293a1.9 1.9 0 01-.633.853c-.3.227-.605.345-.921.345h-.835L170.664 45h-.922l.556-1.502h-.852c-.316 0-.538-.118-.666-.353-.123-.232-.127-.512-.004-.845l.444-1.206h.921l-.444 1.206c-.07.19-.041.288.087.288h2.607c.127 0 .226-.097.296-.288l.444-1.206h.921l-.444 1.206zm3.923 2.7h-1.258l-.687-1.279h-1.295l-.473 1.28h-.922l1.44-3.903h3.829c.333 0 .559.13.67.386.115.247.103.556-.037.93a2.15 2.15 0 01-.65.93c-.304.251-.621.381-.954.381h-.354l.687 1.28.004-.005zm-2.907-2.189h2.854c.168 0 .3-.134.399-.398.098-.268.066-.402-.103-.402h-2.858l-.296.804.004-.004zm8.735-.804h-3.291l-.213.585h3.076l-.333.906h-3.076l-.218.593h3.29l-.338.91h-4.215l1.439-3.903h4.216l-.337.91zm3.622 2.64c-.3.236-.608.353-.929.353h-3.409l.337-.91h3.409c.128 0 .23-.097.3-.296.074-.199.046-.296-.082-.296h-2.48c-.316 0-.539-.118-.67-.35-.132-.227-.132-.511-.008-.848.123-.333.329-.613.621-.845.308-.243.621-.361.941-.361h3.406l-.338.91h-3.405c-.127 0-.226.097-.3.296-.07.19-.041.288.086.288h2.48c.317 0 .539.118.666.353.124.232.124.516 0 .853a1.912 1.912 0 01-.625.853z" fill="#231F20"/><path style="mix-blend-mode:difference" d="M9.011 25.43c-2.554-2.587-3.364-6.603-2.093-11.127 1.27-4.528 6.444-8.65 9.438-10.871-2.953 1.608-5.31 2.98-7.76 5.803C6.58 11.558 4.33 15.213 4.763 19.72c.214 2.222 1.246 5.357 4.902 7.976 2.525 1.811 6.987 3.675 6.987 3.675-2.447-1.774-4.318-2.57-7.637-5.937l-.004-.004z" fill="url(#paint8_linear_2005_12514)"/><path style="mix-blend-mode:difference" d="M14.451 9.82C16.595 5.25 23.252 1.933 27.402 0c0 0-8.077 2.173-12.297 6.81-2.315 2.547-4.112 5.747-3.676 9.499.613 5.243 5.083 8.402 9.62 12.366-1.025-1.308-5.557-7.164-6.647-9.763-1.09-2.599-1.242-6.347.045-9.097l.005.005z" fill="url(#paint9_linear_2005_12514)"/><path style="mix-blend-mode:difference" d="M18.988 34.868c-4.355-.605-10.709-2.432-13.703-5.421C2.46 26.628.725 22.974 1.678 17.93c.954-5.04 3.336-6.721 5.807-9.483 0 0-3.948 2.42-6.127 6.88C-1.455 21.085.28 27.067 4.93 31.246c5.413 4.865 12.478 4.442 18.346 6.209 4.224 1.271 6.576 3.318 9.916 5.755-3.134-5.743-9.948-7.749-14.205-8.342z" fill="url(#paint10_linear_2005_12514)"/><path style="mix-blend-mode:multiply" d="M33.403 34.571v8.788c-3.455-2.505-5.816-4.609-10.125-5.908-5.87-1.771-12.934-1.349-18.347-6.21-4.65-4.174-6.386-10.156-3.573-15.915 2.18-4.459 6.127-6.88 6.127-6.88-2.29 2.803-3.685 5.78-3.685 9.95 0 4.171 1.234 6.575 3.813 8.874 3.47 3.09 9.04 4.101 9.04 4.101s-4.463-1.864-6.988-3.675c-3.652-2.62-4.688-5.754-4.902-7.976-.432-4.503 1.822-8.162 3.833-10.485 2.45-2.823 4.807-4.195 7.76-5.803-3.385 3.35-6.457 6.542-6.272 12.333.235 7.505 7.732 10.087 10.969 12.918-4.537-3.968-9.007-7.123-9.62-12.366-.44-3.752 1.362-6.956 3.677-9.499C19.33 2.173 27.402 0 27.402 0s-6.588 4.382-7.71 10.429c-.947 5.084 1.225 8.032 3.129 9.645 6.239 5.279 10.7 5.153 10.582 14.497z" fill="url(#paint11_linear_2005_12514)"/><path opacity=".5" d="M7.486 8.447zm1.747 8.857c.542 6.587 6.395 9.576 11.819 11.375-3.24-2.83-10.734-5.41-10.968-12.918-.181-5.791 2.887-8.983 6.271-12.333-.065.048-.131.101-.201.15-3.566 3.285-7.464 7.14-6.921 13.722v.004z" fill="#ED1C24"/><path opacity=".5" d="M2.879 21.113c.909 4.707 5.079 10.429 13.769 10.254 0 0-5.569-1.007-9.04-4.101-2.578-2.299-3.812-4.804-3.812-8.874 0-3.837 1.185-6.664 3.159-9.27-2.805 3.646-4.931 7.557-4.076 11.987v.004zm30.525 13.458c.115-9.344-4.343-9.218-10.582-14.497-1.904-1.613-4.076-4.561-3.13-9.645C20.815 4.382 27.403 0 27.403 0c-3.923 2.34-10.001 6.372-9.64 13.807.362 7.44 5.515 8.89 10.167 11.964 4.581 3.03 5.042 11.001 5.457 17.576l.017.012v-8.788z" fill="#ED1C24"/><path d="M82.053 10.523v2.997h-1.139v-2.624l-.378-.378h-2.657v2.997h-1.135v-3.8c0-.2.128-.305.383-.321h3.791l1.14 1.12-.005.009zm7.872 0v2.623c0 .236-.128.361-.383.378h-4.548c-.255-.017-.383-.142-.383-.378V9.722c0-.198.128-.304.383-.32h3.792l1.139 1.12zm-1.14.377l-.378-.377h-2.656v1.876h3.035V10.9zm-1.768-1.84l-.222.224h-.826l.637-.63h.827l.637.63h-.835l-.222-.223h.004zm.847-.032l.72-.71h.934l-.72.71h-.934zm5.757 4.495h-1.135V9.401h1.135v4.122zm12.815-3.001V12.4l-1.139 1.12h-3.791c-.255-.016-.383-.142-.383-.377V9.718c0-.199.128-.304.383-.32h3.791l1.139 1.12v.004zm-1.139 1.499V10.9l-.378-.378h-2.657V12.4h2.657l.378-.378zm9.01-1.498v2.997h-1.139v-1.5h-3.035v1.498h-1.135v-3.8c0-.2.128-.305.383-.321h3.791l1.139 1.12-.004.005zm-1.139.377l-.378-.377h-2.657v.377h3.035zm-1.999-2.217c0 .06.021.114.066.158a.22.22 0 00.161.065c.061 0 .115-.02.156-.065a.23.23 0 00.066-.158V8.65h.83l-.637.63h-.827l-.637-.63h.831v.033h-.009zm.852 4.979v.658h-.74v-.658h.74zm10.159-3.139v2.997h-1.139v-2.624l-.378-.378h-.568v2.997h-1.139v-2.997h-.95v2.997h-1.135v-3.8c0-.2.128-.305.383-.321h3.791l1.14 1.12-.005.009zm7.463.511V9.722c0-.199.128-.304.383-.32h3.792l1.139 1.12v1.876l-1.139 1.121h-3.792c-.255-.016-.383-.142-.383-.377v-1.438h-.403v-.67h.403zm2.595 0l.457.67h-1.917v.694h2.657l.378-.377V10.9l-.378-.378h-2.657v.512h1.46zm10.591-.272v2.762h-4.931c-.255-.017-.382-.142-.382-.378V9.402h1.135v2.997h3.035V9.402h.497l.07-.293h1.139l-.398 1.653h-.169.004zm8.057 0v2.384c0 .235-.128.361-.383.377h-4.548c-.255-.016-.383-.142-.383-.377V9.722c0-.199.128-.304.383-.32h3.792l.263.26.135-.557h1.14l-.399 1.653v.004zm-1.139.142l-.379-.378h-2.657v1.877h3.036v-1.499zm-2.147-1.64l-.72-.711h.934l.719.71h-.933zm11.287 1.259v2.997h-1.139v-2.624l-.378-.378h-2.657v2.997h-1.135v-3.8c0-.2.128-.305.383-.321h3.791l1.14 1.12-.005.009zm7.874-1.121v1.12h-4.175V12.4h3.036v-.378h-2.809V10.9h3.565c.255.016.383.142.383.374v1.868c0 .235-.128.361-.383.377h-4.548c-.255-.016-.383-.142-.383-.377V9.718c0-.199.128-.304.383-.32h4.931v.004zm12.74 2.245l1.131 1.86-1.283.016-.975-1.502h-1.892l-.97 1.49-1.283-.008 1.13-1.868v-.37l-1.13-1.86 1.283.017.974 1.49h1.888l.975-1.478 1.283-.008-1.131 1.86v.373-.012zm9.05-1.125v2.997h-1.139v-1.498h-3.035v1.498h-1.135v-3.8c0-.2.128-.305.383-.322h3.791l1.14 1.121-.005.004zm-1.139.378l-.378-.378h-2.657v.378h3.035z" fill="#A71C20"/><defs><linearGradient id="paint0_linear_2005_12514" x1="177.474" y1="18.416" x2="177.474" y2="38.912" gradientUnits="userSpaceOnUse"><stop/><stop offset=".49" stop-color="#58595B"/><stop offset="1" stop-color="#101010"/></linearGradient><linearGradient id="paint1_linear_2005_12514" x1="60.608" y1="18.416" x2="60.608" y2="38.912" gradientUnits="userSpaceOnUse"><stop/><stop offset=".49" stop-color="#58595B"/><stop offset="1" stop-color="#231F20"/></linearGradient><linearGradient id="paint2_linear_2005_12514" x1="88.036" y1="16.593" x2="88.036" y2="38.969" gradientUnits="userSpaceOnUse"><stop/><stop offset=".529" stop-color="#58595B"/><stop offset="1"/></linearGradient><linearGradient id="paint3_linear_2005_12514" x1="111.039" y1="17.868" x2="110.237" y2="38.986" gradientUnits="userSpaceOnUse"><stop stop-color="#17161A"/><stop offset=".503" stop-color="#58595B"/><stop offset="1" stop-color="#17161A"/></linearGradient><linearGradient id="paint4_linear_2005_12514" x1="131.809" y1="16.593" x2="131.809" y2="38.965" gradientUnits="userSpaceOnUse"><stop stop-color="#17161A"/><stop offset=".54" stop-color="#58595B"/><stop offset="1"/></linearGradient><linearGradient id="paint5_linear_2005_12514" x1="155.407" y1="16.589" x2="155.407" y2="38.965" gradientUnits="userSpaceOnUse"><stop stop-color="#17161A"/><stop offset=".545" stop-color="#58595B"/><stop offset="1"/></linearGradient><linearGradient id="paint6_linear_2005_12514" x1="14.37" y1="18.417" x2="14.37" y2="38.913" gradientUnits="userSpaceOnUse"><stop/><stop offset=".49" stop-color="#58595B"/><stop offset="1" stop-color="#231F20"/></linearGradient><linearGradient id="paint7_linear_2005_12514" x1="33.851" y1="18.417" x2="33.851" y2="38.913" gradientUnits="userSpaceOnUse"><stop/><stop offset=".49" stop-color="#58595B"/><stop offset="1" stop-color="#231F20"/></linearGradient><linearGradient id="paint8_linear_2005_12514" x1="4.705" y1="17.397" x2="16.648" y2="17.397" gradientUnits="userSpaceOnUse"><stop stop-color="#F89521" stop-opacity="0"/><stop offset=".03" stop-color="#F59121" stop-opacity=".04"/><stop offset=".28" stop-color="#DC6F22" stop-opacity=".38"/><stop offset=".51" stop-color="#C85522" stop-opacity=".65"/><stop offset=".72" stop-color="#BA4123" stop-opacity=".84"/><stop offset=".89" stop-color="#B23623" stop-opacity=".96"/><stop offset="1" stop-color="#AF3224"/></linearGradient><linearGradient id="paint9_linear_2005_12514" x1="11.363" y1="14.339" x2="27.402" y2="14.339" gradientUnits="userSpaceOnUse"><stop stop-color="#F89521" stop-opacity="0"/><stop offset=".03" stop-color="#F59121" stop-opacity=".04"/><stop offset=".28" stop-color="#DC6F22" stop-opacity=".38"/><stop offset=".51" stop-color="#C85522" stop-opacity=".65"/><stop offset=".72" stop-color="#BA4123" stop-opacity=".84"/><stop offset=".89" stop-color="#B23623" stop-opacity=".96"/><stop offset="1" stop-color="#AF3224"/></linearGradient><linearGradient id="paint10_linear_2005_12514" x1="0" y1="25.828" x2="33.197" y2="25.828" gradientUnits="userSpaceOnUse"><stop stop-color="#F89521" stop-opacity="0"/><stop offset=".03" stop-color="#F59121" stop-opacity=".04"/><stop offset=".28" stop-color="#DC6F22" stop-opacity=".38"/><stop offset=".51" stop-color="#C85522" stop-opacity=".65"/><stop offset=".72" stop-color="#BA4123" stop-opacity=".84"/><stop offset=".89" stop-color="#B23623" stop-opacity=".96"/><stop offset="1" stop-color="#AF3224"/></linearGradient><linearGradient id="paint11_linear_2005_12514" x1="0" y1="21.682" x2="33.407" y2="21.682" gradientUnits="userSpaceOnUse"><stop stop-color="#F89521" stop-opacity="0"/><stop offset=".01" stop-color="#F69221" stop-opacity=".02"/><stop offset=".2" stop-color="#E07521" stop-opacity=".32"/><stop offset=".38" stop-color="#CE5D22" stop-opacity=".56"/><stop offset=".55" stop-color="#C14A23" stop-opacity=".75"/><stop offset=".72" stop-color="#B73C23" stop-opacity=".89"/><stop offset=".87" stop-color="#B13423" stop-opacity=".97"/><stop offset="1" stop-color="#AF3224"/></linearGradient></defs></svg>