<svg width="31" height="31" fill="none" xmlns="http://www.w3.org/2000/svg"><path d="M1.344 25.281a1.458 1.458 0 010-2.062l4.375-4.375a1.459 1.459 0 011.84-.182l3.38 2.253 3.53-3.53a1.458 1.458 0 012.062 2.063l-4.375 4.375a1.459 1.459 0 01-1.84.182l-3.38-2.253-3.53 3.529a1.458 1.458 0 01-2.062 0zm28.74-22.906v26.25a1.458 1.458 0 01-1.459 1.458H2.375a1.459 1.459 0 010-2.916h24.792v-17.5H3.833V15.5a1.458 1.458 0 01-2.916 0V2.375A1.458 1.458 0 012.375.917h26.25a1.458 1.458 0 011.458 1.458zM3.833 6.75h23.333V3.833H3.833V6.75zm15.614 9.781l1.458-1.458a1.458 1.458 0 00-2.062-2.062l-1.458 1.458a1.458 1.458 0 102.062 2.062z" fill="#A61C20"/></svg>