<svg width="743" height="1143" fill="none" xmlns="http://www.w3.org/2000/svg"><path d="M214.312 571.5c0-197.346 159.842-357.188 357.188-357.188 197.346 0 357.188 159.842 357.188 357.188 0 197.346-159.842 357.188-357.188 357.188-197.346 0-357.188-159.842-357.188-357.188zm637.803 54.025c3.349-17.637 5.135-35.496 5.135-54.025 0-82.153-34.603-156.046-89.967-208.285l-85.278 117.649c20.092 24.556 32.37 56.257 32.37 90.636 0 3.125-2.009 6.028-.223 8.93l137.963 45.095zm-160.287 22.77c-19.199 30.138-49.337 52.462-84.833 59.606l-1.785 147.117c100.682-12.279 183.951-75.01 224.804-161.628l-138.186-45.095zM533.772 855.018l1.786-147.117c-35.272-7.144-65.41-29.468-84.386-59.606L312.986 693.39c40.853 86.618 123.899 149.349 220.786 161.628zM428.848 580.43c-.223-2.902-.223-5.805-.223-8.93 0-34.379 12.278-66.08 32.37-90.636l-85.278-117.649c-55.364 52.239-89.967 126.132-89.967 206.276 0 20.538 1.786 38.397 5.135 56.034l137.963-45.095zm89.967-141.759c16.297-6.474 34.156-10.046 52.685-10.046 18.529 0 36.388 3.572 52.685 10.046l85.279-117.426C668.61 298.698 621.506 285.75 571.5 285.75s-97.11 12.948-137.964 35.495l85.279 117.426zm52.685 61.391c-39.514 0-71.438 31.924-71.438 71.438s31.924 71.438 71.438 71.438 71.438-31.924 71.438-71.438-31.924-71.438-71.438-71.438zM1143 571.5c0 315.664-255.836 571.5-571.5 571.5S0 887.164 0 571.5 255.836 0 571.5 0 1143 255.836 1143 571.5zM571.5 71.437C295.349 71.438 71.437 295.35 71.437 571.5c0 276.151 223.912 500.06 500.063 500.06 276.151 0 500.06-223.909 500.06-500.06S847.651 71.437 571.5 71.437z" fill="#C9161D"/></svg>