<svg width="33" height="25" fill="none" xmlns="http://www.w3.org/2000/svg"><path d="M31.084.833H1.917A1.458 1.458 0 00.46 2.292v20.416a1.458 1.458 0 001.458 1.459h29.167a1.458 1.458 0 001.458-1.459V2.293a1.458 1.458 0 00-1.459-1.46zm-1.458 17.769a4.357 4.357 0 00-2.649 2.648H6.024a4.357 4.357 0 00-2.648-2.648V6.398A4.356 4.356 0 006.024 3.75h20.953a4.357 4.357 0 002.649 2.65v12.203zM16.5 6.667a5.833 5.833 0 100 11.667 5.833 5.833 0 000-11.667zm0 8.75a2.917 2.917 0 110-5.834 2.917 2.917 0 010 5.834zM9.209 12.5a1.458 1.458 0 01-1.458 1.459H6.292a1.459 1.459 0 010-2.917h1.459A1.458 1.458 0 019.209 12.5zm18.958 0a1.458 1.458 0 01-1.458 1.459h-1.458a1.458 1.458 0 010-2.917h1.458a1.458 1.458 0 011.458 1.458z" fill="#fff"/></svg>