<svg width="33" height="27" fill="none" xmlns="http://www.w3.org/2000/svg"><path d="M32.541 12.042a7.323 7.323 0 01-3.646 6.316 1.459 1.459 0 01-1.458-2.526 4.375 4.375 0 00-2.188-8.165c-.498.007-.991.1-1.458.274a1.458 1.458 0 01-1.852-.858 5.852 5.852 0 00-5.44-3.791 5.778 5.778 0 00-5.44 3.791 1.458 1.458 0 01-1.851.858 4.324 4.324 0 00-1.458-.274 4.375 4.375 0 00-2.188 8.166 1.46 1.46 0 11-1.458 2.526A7.292 7.292 0 017.75 4.75c.382 0 .764.033 1.141.098a8.708 8.708 0 0115.217 0 6.721 6.721 0 011.142-.098 7.3 7.3 0 017.291 7.292zM9.208 17.875a1.458 1.458 0 001.458-1.458V13.5a1.458 1.458 0 10-2.916 0v2.917a1.458 1.458 0 001.458 1.458zM7.75 25.167a1.458 1.458 0 002.916 0V22.25a1.458 1.458 0 10-2.916 0v2.917zm16.041-7.292a1.458 1.458 0 001.459-1.458V13.5a1.458 1.458 0 10-2.917 0v2.917a1.458 1.458 0 001.458 1.458zm-1.458 7.292a1.458 1.458 0 102.917 0V22.25a1.458 1.458 0 10-2.917 0v2.917zM16.5 13.5a1.459 1.459 0 001.458-1.458V9.125a1.458 1.458 0 00-2.917 0v2.917A1.458 1.458 0 0016.5 13.5zm-1.459 7.292a1.458 1.458 0 102.917 0v-2.917a1.458 1.458 0 00-2.917 0v2.917z" fill="#fff"/></svg>