<svg width="30" height="24" fill="none" xmlns="http://www.w3.org/2000/svg"><path d="M8.724 13.99a1.177 1.177 0 01-.3-.379 1.043 1.043 0 01-.008-.902c.067-.143.166-.273.291-.383a1.36 1.36 0 01.438-.255 1.504 1.504 0 011.031.008c.163.061.31.15.433.261l3.057 2.676V1.499c0-.31.14-.606.39-.825.25-.22.59-.342.944-.342.353 0 .692.123.943.342.25.219.39.515.39.825v13.517l3.057-2.675a1.44 1.44 0 01.938-.328c.35.003.684.125.931.342a1.1 1.1 0 01.39.815c.004.306-.13.6-.373.82l-5.334 4.667a1.362 1.362 0 01-.433.252 1.479 1.479 0 01-1.452-.252L8.724 13.99zM28.333 12a1.44 1.44 0 00-.943.341 1.1 1.1 0 00-.39.825v8.167H3v-8.167c0-.31-.14-.606-.39-.825A1.436 1.436 0 001.665 12c-.353 0-.692.123-.942.341-.25.22-.391.516-.391.825V22.5c0 .31.14.606.39.825.25.218.59.341.943.341h26.667c.354 0 .693-.123.943-.341a1.1 1.1 0 00.39-.825v-9.334c0-.31-.14-.606-.39-.825a1.436 1.436 0 00-.943-.341z" fill="#000"/></svg>