<svg width="27" height="33" fill="none" xmlns="http://www.w3.org/2000/svg"><path d="M25.167 4.833C19.903 4.833 14.429.791 14.375.75a1.458 1.458 0 00-1.75 0c-.054.04-5.529 4.083-10.792 4.083A1.458 1.458 0 00.375 6.292c0 .875.146 21.48 12.613 26.158.33.121.692.121 1.021 0 12.47-4.68 12.616-25.283 12.616-26.158a1.458 1.458 0 00-1.458-1.459zM13.5 29.511C5.042 25.833 3.59 12.086 3.343 7.667A24.745 24.745 0 0013.5 3.69a24.745 24.745 0 0010.157 3.977c-.24 4.418-1.699 18.166-10.157 21.844zm-5.833-14.47a5.833 5.833 0 1011.666 0 5.833 5.833 0 00-11.666 0zm8.75 0a2.917 2.917 0 11-5.834 0 2.917 2.917 0 015.834 0z" fill="#000"/></svg>