<svg width="28" height="28" fill="none" xmlns="http://www.w3.org/2000/svg"><path d="M4 7.75a3.75 3.75 0 100-7.5 3.75 3.75 0 000 7.5zm0-5a1.25 1.25 0 110 2.5 1.25 1.25 0 010-2.5zm0 15a3.75 3.75 0 100-7.5 3.75 3.75 0 000 7.5zm0-5a1.25 1.25 0 110 2.5 1.25 1.25 0 010-2.5zm0 15a3.75 3.75 0 100-7.5 3.75 3.75 0 000 7.5zm0-5a1.25 1.25 0 110 2.5 1.25 1.25 0 010-2.5zM27.75 4a1.25 1.25 0 01-1.25 1.25h-15a1.25 1.25 0 110-2.5h15A1.25 1.25 0 0127.75 4zm0 10a1.25 1.25 0 01-1.25 1.25h-15a1.25 1.25 0 010-2.5h15A1.25 1.25 0 0127.75 14zm0 10a1.25 1.25 0 01-1.25 1.25h-15a1.25 1.25 0 010-2.5h15A1.25 1.25 0 0127.75 24z" fill="#fff"/></svg>