<svg width="35" height="35" fill="none" xmlns="http://www.w3.org/2000/svg"><path d="M17.5 23.333a5.833 5.833 0 100-11.666 5.833 5.833 0 000 11.666zm0-8.75a2.916 2.916 0 110 5.833 2.916 2.916 0 010-5.833zM5.104 18.779l-1.458.844a2.917 2.917 0 00-1.07 3.984l2.172 3.76a2.917 2.917 0 003.987 1.07l1.473-.852a1.467 1.467 0 011.47.017 1.446 1.446 0 01.722 1.25v1.773a2.917 2.917 0 002.917 2.916h4.375a2.916 2.916 0 002.917-2.916v-1.777a1.472 1.472 0 012.187-1.262l1.471.848a2.917 2.917 0 003.985-1.067l2.17-3.76a2.916 2.916 0 00-1.07-3.984l-1.458-.844a1.468 1.468 0 01-.729-1.298 1.46 1.46 0 01.73-1.26l1.458-.845a2.916 2.916 0 001.069-3.984l-2.173-3.76a2.918 2.918 0 00-3.984-1.07l-1.473.85a1.47 1.47 0 01-2.188-1.264V4.375a2.917 2.917 0 00-2.916-2.917h-4.375a2.917 2.917 0 00-2.917 2.917v1.887a1.246 1.246 0 01-.624 1.079l-.225.13a1.26 1.26 0 01-1.245 0l-1.567-.909A2.917 2.917 0 004.75 7.63l-2.17 3.764a2.917 2.917 0 001.066 3.982l1.458.843a1.474 1.474 0 01.73 1.3 1.45 1.45 0 01-.73 1.26zm1.459-5.086l-1.459-.842 2.173-3.76 1.566.904a4.17 4.17 0 004.157 0l.224-.128a4.174 4.174 0 002.088-3.605V4.375h4.376v1.773A4.388 4.388 0 0026.25 9.94l1.469-.85 2.177 3.76-1.459.843a4.41 4.41 0 000 7.612l1.459.844-2.17 3.76-1.476-.85a4.386 4.386 0 00-6.563 3.792v1.774h-4.375V28.85a4.383 4.383 0 00-6.562-3.79l-1.469.848-2.177-3.76 1.459-.843a4.41 4.41 0 000-7.612z" fill="#000"/></svg>