<svg width="631" height="1263" fill="none" xmlns="http://www.w3.org/2000/svg"><path d="M-395.188 631.5c0-218.065 176.623-394.688 394.688-394.688S394.188 413.435 394.188 631.5 217.565 1026.19-.5 1026.19-395.188 849.565-395.188 631.5zm704.764 59.697c3.701-19.488 5.674-39.223 5.674-59.697 0-90.778-38.235-172.429-99.412-230.152l-94.232 130c22.202 27.135 35.769 62.163 35.769 100.152 0 3.453-2.22 6.66-.247 9.867l152.448 49.83zM132.46 716.358c-21.214 33.302-54.516 57.97-93.738 65.863l-1.973 162.562C148 931.216 240.013 861.899 285.155 766.187L132.46 716.358zM-42.189 944.783l1.974-162.562c-38.976-7.893-72.278-32.561-93.245-65.863l-152.695 49.829c45.142 95.712 136.907 165.029 243.966 178.596zm-115.939-303.416c-.247-3.207-.247-6.414-.247-9.867 0-37.989 13.567-73.017 35.769-100.152l-94.232-130c-61.177 57.723-99.412 139.374-99.412 227.932 0 22.694 1.973 42.429 5.674 61.917l152.448-49.83zm99.412-156.641c18.007-7.154 37.742-11.101 58.216-11.101 20.474 0 40.209 3.947 58.216 11.101l94.232-129.754C106.806 330.057 54.756 315.75-.5 315.75c-55.256 0-107.306 14.307-152.448 39.222l94.232 129.754zM-.5 552.562c-43.662 0-78.938 35.276-78.938 78.938S-44.161 710.438-.5 710.438s78.938-35.276 78.938-78.938S43.161 552.562-.5 552.562zM631 631.5C631 980.305 348.305 1263-.5 1263S-632 980.305-632 631.5-349.305 0-.5 0 631 282.695 631 631.5zM-.5 78.937c-305.143 0-552.562 247.42-552.562 552.563 0 305.143 247.419 552.56 552.562 552.56 305.143 0 552.562-247.417 552.562-552.56C552.062 326.357 304.643 78.937-.5 78.937z" fill="#C9161D"/></svg>