<svg width="24" height="32" fill="none" xmlns="http://www.w3.org/2000/svg"><path d="M12 26.184c-1.672 0-3.037 1.308-3.037 2.908C8.963 30.692 10.328 32 12 32s3.037-1.307 3.037-2.908c0-1.593-1.365-2.908-3.037-2.908zM3.037 0C1.365 0 0 1.307 0 2.908c0 1.6 1.365 2.908 3.038 2.908 1.672 0 3.037-1.308 3.037-2.908C6.075 1.308 4.71 0 3.037 0zm0 8.73C1.366 8.73 0 10.039 0 11.639c0 1.6 1.365 2.908 3.038 2.908 1.672 0 3.037-1.307 3.037-2.908 0-1.6-1.365-2.907-3.038-2.907zm0 8.731C1.366 17.461 0 18.769 0 20.369c0 1.6 1.365 2.908 3.038 2.908 1.672 0 3.037-1.308 3.037-2.908 0-1.6-1.365-2.908-3.038-2.908zM20.963 5.823C22.636 5.823 24 4.515 24 2.915 24 1.315 22.635 0 20.962 0c-1.672 0-3.037 1.307-3.037 2.908 0 1.6 1.365 2.915 3.037 2.915zM12 17.46c-1.672 0-3.037 1.308-3.037 2.908 0 1.6 1.365 2.908 3.037 2.908s3.037-1.308 3.037-2.908c0-1.6-1.365-2.908-3.037-2.908zm8.962 0c-1.672 0-3.037 1.308-3.037 2.908 0 1.6 1.365 2.908 3.037 2.908 1.673 0 3.038-1.308 3.038-2.908 0-1.6-1.365-2.908-3.038-2.908zm0-8.73c-1.672 0-3.037 1.307-3.037 2.907s1.365 2.908 3.037 2.908c1.673 0 3.038-1.307 3.038-2.908 0-1.6-1.365-2.907-3.038-2.907zM12 8.73c-1.672 0-3.037 1.307-3.037 2.907s1.365 2.908 3.037 2.908 3.037-1.307 3.037-2.908c0-1.6-1.365-2.907-3.037-2.907zM12 0c-1.672 0-3.037 1.307-3.037 2.908 0 1.6 1.365 2.908 3.037 2.908s3.037-1.308 3.037-2.908C15.037 1.308 13.672 0 12 0z" fill="#17161A"/></svg>