<svg width="35" height="35" fill="none" xmlns="http://www.w3.org/2000/svg"><path d="M17.5 1.458A16.042 16.042 0 1033.542 17.5 16.06 16.06 0 0017.5 1.458zm-5.616 4.197a5.924 5.924 0 01-1.127 3.197 42.808 42.808 0 01-2.01-1.104c.94-.844 1.996-1.55 3.137-2.093zM9.017 27.497a13.125 13.125 0 01-4.363-7.31c5.263-1.786 7.509-2.056 8.384-2.056a2.59 2.59 0 01-.763 1.072 3.145 3.145 0 00-.945 1.399 2.166 2.166 0 00.73 2.221c.066.623-1.434 2.57-2.428 3.859-.204.262-.41.545-.615.815zm8.483 3.128a13.03 13.03 0 01-6.06-1.495c.167-.221.336-.453.501-.668 1.973-2.559 4.007-5.2 2.492-7.291a4.932 4.932 0 001.609-3.671 2.117 2.117 0 00-.903-1.75c-.675-.477-2.034-1.442-10.75 1.447A13.039 13.039 0 016.768 9.97a46.911 46.911 0 002.79 1.543 2.681 2.681 0 002.8-.222c1.633-1.143 2.479-4.083 2.498-6.649a12.995 12.995 0 016.98.483c-4.688 2.002-5.793 4.576-5.793 6.54 0 4.425 2.941 4.767 4.52 4.95 1.313.153 1.313.153 1.313.884a9.587 9.587 0 01-.767 3.58c-.53 1.42-1.329 3.566 1.574 5.017.48.238 1.01.36 1.547.354a9.334 9.334 0 003.854-1.22A13.107 13.107 0 0117.5 30.625zm12.593-9.457c-.987.342-1.947.756-2.872 1.24-1.146.565-2.715 1.338-3.236 1.078a4.123 4.123 0 01-.49-.281c.08-.38.195-.75.346-1.108a12.36 12.36 0 00.95-4.597c0-3.33-2.624-3.634-3.893-3.781-1.528-.177-1.94-.225-1.94-2.052 0-2.374 3.712-3.904 6.35-4.692a13.036 13.036 0 014.785 14.193z" fill="#A61C20"/></svg>