<svg width="35" height="35" fill="none" xmlns="http://www.w3.org/2000/svg"><path d="M10.208 16.042a3.646 3.646 0 110 7.292 3.646 3.646 0 010-7.292zm0 8.75a7.292 7.292 0 00-7.292 7.291H17.5a7.292 7.292 0 00-7.292-7.291zm14.583-1.459a3.646 3.646 0 100-7.291 3.646 3.646 0 000 7.291zm0 1.459a7.292 7.292 0 00-7.291 7.291h14.583a7.292 7.292 0 00-7.291-7.291zm-3.645-18.23a3.646 3.646 0 10-7.292 0 3.646 3.646 0 007.292 0zm-4.45 12.396H18.3a6.545 6.545 0 014.1-5.366 7.198 7.198 0 00-9.8 0 6.546 6.546 0 014.096 5.366z" fill="#A61C20"/></svg>