<svg width="35" height="35" fill="none" xmlns="http://www.w3.org/2000/svg"><path d="M29.167 5.833c-5.264 0-10.738-4.042-10.792-4.083a1.458 1.458 0 00-1.75 0c-.054.04-5.528 4.083-10.792 4.083a1.458 1.458 0 00-1.458 1.458c0 .875.146 21.48 12.613 26.159.33.121.692.121 1.021 0 12.47-4.68 12.616-25.284 12.616-26.16a1.458 1.458 0 00-1.458-1.458zM17.5 30.511C9.042 26.833 7.59 13.085 7.343 8.667A24.745 24.745 0 0017.5 4.69a24.745 24.745 0 0010.157 3.977c-.24 4.418-1.699 18.166-10.157 21.844zm-5.833-14.47a5.833 5.833 0 1011.666 0 5.833 5.833 0 00-11.666 0zm8.75 0a2.917 2.917 0 11-5.834 0 2.917 2.917 0 015.834 0z" fill="#000"/></svg>