<svg width="31" height="33" fill="none" xmlns="http://www.w3.org/2000/svg"><path d="M15.5 22.333a5.834 5.834 0 100-11.668 5.834 5.834 0 000 11.668zm0-8.75a2.916 2.916 0 110 5.833 2.916 2.916 0 010-5.833zM3.104 17.78l-1.458.844a2.915 2.915 0 00-1.07 3.984l2.172 3.76a2.917 2.917 0 003.987 1.07l1.473-.851a1.467 1.467 0 011.47.016 1.447 1.447 0 01.722 1.25v1.773a2.917 2.917 0 002.917 2.917h4.375a2.917 2.917 0 002.917-2.917V27.85a1.472 1.472 0 012.187-1.263l1.471.849a2.917 2.917 0 003.985-1.068l2.17-3.76a2.916 2.916 0 00-1.07-3.984l-1.458-.844a1.469 1.469 0 01-.729-1.298 1.459 1.459 0 01.73-1.26l1.458-.844a2.916 2.916 0 001.069-3.985l-2.173-3.76a2.918 2.918 0 00-3.984-1.07l-1.473.85a1.47 1.47 0 01-2.188-1.264V3.375A2.917 2.917 0 0017.688.458h-4.375a2.917 2.917 0 00-2.917 2.917v1.887a1.246 1.246 0 01-.624 1.08l-.225.129a1.26 1.26 0 01-1.245 0l-1.567-.909A2.917 2.917 0 002.75 6.63L.58 10.394a2.917 2.917 0 001.066 3.983l1.458.842a1.474 1.474 0 01.73 1.3 1.45 1.45 0 01-.73 1.26zm1.459-5.085l-1.459-.843 2.173-3.76 1.566.904a4.17 4.17 0 004.157 0l.224-.128a4.174 4.174 0 002.088-3.605V3.375h4.376v1.773A4.388 4.388 0 0024.25 8.94l1.469-.849 2.177 3.76-1.459.843a4.41 4.41 0 000 7.61l1.459.845-2.17 3.76-1.476-.85a4.387 4.387 0 00-6.563 3.793v1.773h-4.375v-1.773A4.383 4.383 0 006.75 24.06l-1.469.849-2.177-3.76 1.459-.844a4.41 4.41 0 000-7.611z" fill="#000"/></svg>