<svg width="33" height="33" fill="none" xmlns="http://www.w3.org/2000/svg"><path d="M22.333.458c-2.088 0-4.125.644-5.833 1.844A10.208 10.208 0 106.569 20.01a10.209 10.209 0 1019.862 0A10.208 10.208 0 0022.333.458zm-4.548 11.757a9.17 9.17 0 00-2.57 0A7.118 7.118 0 0116.5 6.337a7.117 7.117 0 011.285 5.878zm-3.481 4.734a7.2 7.2 0 01-3.597 1.01 7.314 7.314 0 012.771-2.236c.245.428.521.838.826 1.226zm5.22-1.23a7.313 7.313 0 012.768 2.24 7.2 7.2 0 01-3.596-1.006c.306-.39.583-.803.828-1.235zm-16.15-5.052a7.3 7.3 0 017.292-7.292 7.216 7.216 0 013.638 1.01 10.078 10.078 0 00-1.896 8.603 10.262 10.262 0 00-4.76 4.292 7.291 7.291 0 01-4.273-6.613zm20.418 11.666a7.292 7.292 0 11-14.41-1.548 9.973 9.973 0 007.118-1.753 9.973 9.973 0 007.118 1.75c.114.51.172 1.03.174 1.551zm1.566-5.051a10.251 10.251 0 00-4.76-4.29 10.081 10.081 0 00-1.896-8.605 7.216 7.216 0 013.631-1.012 7.28 7.28 0 013.025 13.907z" fill="#A61C20"/></svg>