<svg width="31" height="33" fill="none" xmlns="http://www.w3.org/2000/svg"><path d="M3.833 32.542h23.334a1.458 1.458 0 001.458-1.459V13.222c.153-.139.3-.285.438-.438a5.835 5.835 0 001.066-5.04l-1.548-6.18A1.458 1.458 0 0027.167.458H3.833A1.458 1.458 0 002.42 1.564L.876 7.74a5.833 5.833 0 001.062 5.04c.138.153.284.3.437.438v17.864a1.458 1.458 0 001.458 1.459zm13.125-2.917h-2.916v-7.292h2.916v7.292zm9.07-26.25l1.269 5.074a2.959 2.959 0 01-2.872 3.676 2.976 2.976 0 01-2.946-2.712l-.504-6.038h5.053zm-13.076 0h5.096l.46 5.542a2.96 2.96 0 01-2.948 3.208h-.12a2.958 2.958 0 01-2.948-3.208l.46-5.542zm-1.836 9.77a5.892 5.892 0 004.324 1.897h.12a5.891 5.891 0 004.324-1.896c.045-.05.076-.111.12-.16a5.768 5.768 0 005.704 1.91v14.729h-5.833v-8.75a1.459 1.459 0 00-1.458-1.458h-5.834a1.459 1.459 0 00-1.458 1.458v8.75H5.292v-14.73a5.768 5.768 0 005.705-1.911c.043.05.074.11.12.162zM3.704 8.45l1.268-5.074h5.053l-.504 6.038a2.976 2.976 0 01-2.946 2.712A2.958 2.958 0 013.704 8.45z" fill="#A61C20"/></svg>