<svg width="20" height="18" fill="none" xmlns="http://www.w3.org/2000/svg"><path d="M5.281 3.586L4.261 6.5h11.477l-1.02-2.914a1.251 1.251 0 00-1.179-.836H6.461a1.25 1.25 0 00-1.18.836zM1.547 6.688l1.375-3.926A3.75 3.75 0 016.46.25h7.078a3.75 3.75 0 013.54 2.512l1.374 3.925A2.505 2.505 0 0120 9v7.5a1.25 1.25 0 01-1.25 1.25H17.5a1.25 1.25 0 01-1.25-1.25v-1.875H3.75V16.5a1.25 1.25 0 01-1.25 1.25H1.25A1.25 1.25 0 010 16.5V9c0-1.043.64-1.938 1.547-2.313zM5 10.25a1.25 1.25 0 10-2.498-.002A1.25 1.25 0 005 10.25zm11.25 1.25a1.25 1.25 0 10.002-2.498 1.25 1.25 0 00-.002 2.498z" fill="#818084"/></svg>