<svg width="27" height="33" fill="none" xmlns="http://www.w3.org/2000/svg"><path d="M25.167 3.375a1.458 1.458 0 000-2.917H1.833a1.458 1.458 0 000 2.917h1.53c.213 2.678 1.084 8.386 4.658 11.667-3.77 3.662-4.537 11.279-4.69 14.583H1.833a1.458 1.458 0 100 2.917h23.334a1.458 1.458 0 100-2.917h-1.498c-.153-3.302-.92-10.918-4.69-14.583 3.574-3.284 4.445-8.992 4.658-11.667h1.53zm-9.363 10.392a1.458 1.458 0 00.051 2.577c3.554 1.791 4.667 9.204 4.893 13.281H6.252c.22-4.083 1.339-11.49 4.893-13.28a1.458 1.458 0 00.05-2.578C7.494 11.713 6.54 6.064 6.294 3.375h14.414c-.246 2.69-1.2 8.338-4.903 10.392zM13.5 17.96s4.375 3.5 4.375 5.25v4.958h-8.75v-4.959c0-1.75 4.375-5.25 4.375-5.25z" fill="#fff"/></svg>