<svg width="20" height="20" fill="none" xmlns="http://www.w3.org/2000/svg"><path d="M11.25 10a1.25 1.25 0 11-2.498.002A1.25 1.25 0 0111.25 10zm.855 1.344l2.418.789a5.004 5.004 0 01-3.933 2.828l.031-2.574a2.317 2.317 0 001.484-1.043zM12.5 10c0-.602-.215-1.156-.566-1.586l1.492-2.059a4.994 4.994 0 011.484 4.59l-2.414-.789c-.031-.05.004-.101.004-.156zm-1.578-2.324a2.498 2.498 0 00-1.844 0L7.586 5.62A4.952 4.952 0 019.965 5c.91 0 1.734.227 2.45.621l-1.493 2.055zm-2.856.738a2.503 2.503 0 00-.562 1.742l-2.414.79A5.137 5.137 0 015 9.964c0-1.402.605-2.695 1.574-3.61l1.492 2.06zm1.305 3.973L9.34 14.96c-1.695-.215-3.149-1.313-3.863-2.828l2.418-.79a2.3 2.3 0 001.476 1.044zM0 10C0 4.477 4.477 0 10 0s10 4.477 10 10-4.477 10-10 10S0 15.523 0 10zm10 6.25A6.248 6.248 0 0016.25 10 6.248 6.248 0 0010 3.75 6.248 6.248 0 003.75 10 6.248 6.248 0 0010 16.25z" fill="#A61C20"/></svg>